# xmcd
#
# Track frame offsets: 
#        150
#        13969
#        27274
#        40200
#        57478
#        70660
#        88462
#        102050
#        116431
#        130144
#        144210
#        159341
#
# Disc length: 2310 seconds
#
# Revision: 0
# Processed by: cddbd v1.5.2PL0 Copyright (c) Steve Scherf et al.
# Submitted via: ExactAudioCopyFreeDBPlugin 1.0
#
DISCID=9d09040c
DTITLE=Dallas Smith - Side Effects
DYEAR=2016
DGENRE=Country
TTITLE0=Only One You
TTITLE1=Side Effects
TTITLE2=Sky Stays This Blue
TTITLE3=Tab With My Name On It
TTITLE4=Autograph
TTITLE5=50-50
TTITLE6=Kids With Cars
TTITLE7=Hoods And Tailgates
TTITLE8=One Little Kiss
TTITLE9=I'm Already Gone
TTITLE10=Sleepin' Around
TTITLE11=Twelve Pack Soundtrack
EXTD=
EXTT0=
EXTT1=
EXTT2=
EXTT3=
EXTT4=
EXTT5=
EXTT6=
EXTT7=
EXTT8=
EXTT9=
EXTT10=
EXTT11=
PLAYORDER=
